<?xml version="1.0" encoding="utf-8"?>
<!-- Generator: Adobe Illustrator 26.2.1, SVG Export Plug-In . SVG Version: 6.00 Build 0)  -->
<svg version="1.1" id="レイヤー_1" xmlns="http://www.w3.org/2000/svg" xmlns:xlink="http://www.w3.org/1999/xlink" x="0px"
	 y="0px" viewBox="0 0 160.99 54.37" style="enable-background:new 0 0 160.99 54.37;" xml:space="preserve">
<style type="text/css">
	.st0{fill:#3c2721;}
</style>
<g>
	<g>
		<path class="st0" d="M9.68,31.78H5.62v0.49h3.46v3.92H6.52c1.35,1.14,2.76,1.61,3.33,1.77L9.12,39.2
			c-1.05-0.41-2.46-1.31-3.51-2.49v2.63H4.4v-2.61c-0.66,0.84-1.88,1.81-3.54,2.52l-0.72-1.22c2.19-0.79,2.96-1.48,3.37-1.84H0.97
			v-3.92H4.4v-0.49H0.31v-1.11H4.4v-0.75h1.22v0.75h4.07V31.78z M2.14,33.81H4.4V33.2H2.14V33.81z M2.14,35.27H4.4v-0.61H2.14V35.27
			z M5.62,33.2v0.61h2.28V33.2H5.62z M5.62,34.66v0.61h2.28v-0.61H5.62z"/>
		<path class="st0" d="M10.99,38.21c1.11-0.73,1.77-1.63,2.07-2.08l1.06,0.63c-0.5,0.77-1.38,1.8-2.27,2.42L10.99,38.21z
			 M20.48,31.85H11.1v-1.18h3.99V29.9h1.3v0.77h4.1V31.85z M19.53,35.95h-3.15v2.41c0,0.24,0,1.01-0.92,1.01h-1.65l-0.25-1.28h1.29
			c0.19,0,0.3-0.01,0.3-0.26v-1.88h-3.12v-3.46h7.5V35.95z M18.26,33.57h-4.98v1.29h4.98V33.57z M18.31,36.11
			c0.61,0.82,1.33,1.46,2.23,1.96l-0.87,1.06c-1.13-0.72-1.65-1.29-2.45-2.39L18.31,36.11z"/>
		<path class="st0" d="M21.78,38c0.73-0.27,3.39-1.24,3.99-4.51h-3.85v-1.28h3.94V29.9h1.34v2.11c0,0.03-0.01,0.15-0.01,0.2h4.09
			v1.28h-3.91c0.58,2.68,2.17,3.81,4.13,4.55l-0.77,1.29c-0.96-0.39-3.2-1.43-4.09-4.27c-1.07,2.96-3.33,3.91-4.07,4.22L21.78,38z"
			/>
		<path class="st0" d="M40.47,33.22v0.98c-0.55,0.5-1.49,1.08-2.36,1.47h4.03v1.15h-4.13v1.52c0,0.49-0.04,1.03-0.98,1.03H35.1
			l-0.21-1.24h1.46c0.35,0,0.39-0.04,0.39-0.39v-0.92h-4.09v-1.15h4.09v-0.66l0.41,0.01c0.11-0.04,0.78-0.27,1.24-0.68h-4.06v-1.12
			H40.47z M34.1,31.46c-0.2-0.45-0.32-0.72-0.62-1.16l1.21-0.37c0.43,0.59,0.64,1.16,0.77,1.53h1.53c-0.29-0.7-0.48-0.98-0.65-1.24
			l1.22-0.37c0.3,0.49,0.52,0.92,0.73,1.61h1.11c0.12-0.22,0.29-0.54,0.64-1.57l1.34,0.34c-0.23,0.53-0.36,0.79-0.61,1.23h1.13v2.37
			h-1.22v-1.26h-6.55v1.26H32.9v-2.37H34.1z"/>
		<path class="st0" d="M48.06,30.48h8.54v1.26H53v5.87h4.02v1.25h-9.37v-1.25h4.04v-5.87h-3.62V30.48z"/>
		<path class="st0" d="M66.2,33.22v0.98c-0.55,0.5-1.49,1.08-2.36,1.47h4.03v1.15h-4.13v1.52c0,0.49-0.04,1.03-0.98,1.03h-1.94
			l-0.21-1.24h1.46c0.35,0,0.39-0.04,0.39-0.39v-0.92h-4.09v-1.15h4.09v-0.66l0.41,0.01c0.11-0.04,0.78-0.27,1.24-0.68h-4.06v-1.12
			H66.2z M59.83,31.46c-0.2-0.45-0.32-0.72-0.62-1.16l1.21-0.37c0.43,0.59,0.64,1.16,0.77,1.53h1.53c-0.29-0.7-0.48-0.98-0.65-1.24
			l1.22-0.37c0.3,0.49,0.52,0.92,0.73,1.61h1.11c0.12-0.22,0.29-0.54,0.64-1.57l1.34,0.34c-0.23,0.53-0.36,0.79-0.61,1.23h1.13v2.37
			H66.4v-1.26h-6.55v1.26h-1.23v-2.37H59.83z"/>
		<path class="st0" d="M71.28,30.79v-0.84h1.21v0.84h1.87v1.1h-0.55c-0.06,0.48-0.19,1.1-0.35,1.71h1.05v1.1h-5.3v-1.1h1.09
			c-0.03-0.52-0.12-1.24-0.25-1.71h-0.64v-1.1H71.28z M74.21,39.17h-4.6v-3.92h4.6V39.17z M73.06,36.32h-2.28v1.79h2.28V36.32z
			 M72.33,33.6c0.15-0.51,0.26-1.16,0.34-1.71h-1.52c0.12,0.58,0.21,1.03,0.27,1.71H72.33z M74.84,39.33v-9.17h3.69v1.08
			c-0.3,0.87-0.52,1.4-1.01,2.45c0.94,1.04,1.18,2.1,1.18,2.91c0,0.4-0.09,1.07-0.53,1.46c-0.26,0.23-0.61,0.33-1.08,0.33H76.4
			l-0.19-1.21h0.58c0.28,0,0.62-0.04,0.62-0.81c0-1.32-0.77-2.07-1.18-2.47c0.32-0.66,0.79-1.9,0.97-2.62h-1.15v8.05H74.84z"/>
		<path class="st0" d="M9.01,46.12h-3.5v0.37H9.5v2.17H8.25v-1.38H5.52v1.82H4.4v-1.82H1.69v1.38h-1.2v-2.17H4.4v-0.37H0.98V45.2
			h8.04V46.12z M9.79,52.58c-0.09,1.14-0.28,1.67-1.07,1.67H5.35c-0.55,0-1-0.09-1-0.72v-0.77h-3.4v-3.43h8.05v3.03L9.79,52.58z
			 M4.02,47.64v0.5h-1.9v-0.5H4.02z M4.02,48.49v0.52h-1.9v-0.52H4.02z M4.35,51.37H2.14v0.56h2.21V51.37z M4.35,50.13H2.18v0.54
			h2.17V50.13z M7.78,50.13H5.53v0.54h2.25V50.13z M7.78,51.37H5.53v0.56h2.25V51.37z M8.17,53.29c0.27,0,0.38-0.02,0.44-0.53H5.53
			v0.28c0,0.2,0.04,0.25,0.23,0.25H8.17z M7.87,47.64v0.5H5.93v-0.5H7.87z M7.87,48.49v0.52H5.93v-0.52H7.87z"/>
		<path class="st0" d="M11.86,45.24h7.89v1.2c-1,0.76-2.01,1.38-3.29,1.94v0.56h4.04v1.23h-4.04v2.79c0,1.08-0.1,1.37-1.31,1.37
			h-1.92l-0.18-1.24h1.6c0.42,0,0.5-0.01,0.5-0.47v-2.45H11.1v-1.23h4.05v-1.51h0.79c0.7-0.32,1.14-0.58,1.7-0.96h-5.78V45.24z"/>
		<path class="st0" d="M21.71,49.39c0.27-0.79,0.32-1.62,0.31-2.47l0.81,0.02c0.01,1.1-0.06,2.17-0.3,2.98L21.71,49.39z
			 M24.58,47.98c-0.1-0.32-0.13-0.4-0.32-0.87v7.24h-1.21v-9.43h1.21v1.69l0.52-0.25c0.22,0.4,0.4,0.82,0.57,1.25L24.58,47.98z
			 M27.5,44.91h1.23v0.53h2.42v0.91h-2.42v0.46h2.23v0.78h-2.23v0.47h2.62v0.92H24.9v-0.92h2.6v-0.47h-2.14v-0.78h2.14v-0.46h-2.41
			v-0.91h2.41V44.91z M30.89,49.37v3.92c0,0.76-0.11,1.06-1.04,1.06h-1.23l-0.22-1.01h1.05c0.24,0,0.24-0.11,0.24-0.3V52.7h-3.18
			v1.65h-1.17v-4.98H30.89z M26.52,50.24v0.47h3.18v-0.47H26.52z M26.52,51.46v0.48h3.18v-0.48H26.52z"/>
		<path class="st0" d="M34.48,44.94h1.21v0.65h1.51v1.1h-1.51v0.75h1.81v1.09h-0.54c-0.11,0.53-0.13,0.67-0.25,1.13h0.74v1.11h-1.76
			v0.83h1.53v1.14h-1.53v1.58h-1.21v-1.58h-1.52V51.6h1.52v-0.83h-1.69v-1.11h0.73c-0.04-0.3-0.12-0.77-0.24-1.13h-0.55v-1.09h1.75
			v-0.75h-1.52v-1.1h1.52V44.94z M34.39,48.53c0.13,0.57,0.18,0.89,0.22,1.13h0.99c0.09-0.37,0.14-0.74,0.18-1.13H34.39z
			 M38.83,53.39v0.93h-1.17v-9.1h4.17c0,0.37-0.04,2.2-0.23,2.7c-0.05,0.15-0.21,0.56-0.81,0.56h-1.32l-0.2-1.05h0.94
			c0.3,0,0.4,0,0.44-1.07h-1.82v2.52h3.1c-0.07,0.9-0.26,2.37-0.79,3.39c0.34,0.35,0.66,0.61,1.12,0.94l-0.62,1.12
			c-0.29-0.18-0.6-0.38-1.16-1.02c-0.3,0.41-0.6,0.7-0.97,1.04L38.83,53.39z M39.86,50.14c0.12,0.3,0.26,0.62,0.53,1.12
			c0.27-0.67,0.31-0.98,0.35-1.31h-1.91v3.42c0.28-0.24,0.56-0.47,0.95-1.02c-0.59-0.96-0.76-1.62-0.85-1.97L39.86,50.14z"/>
		<path class="st0" d="M43.93,45.48h8.54v1.26h-3.6v5.87h4.02v1.25h-9.37v-1.25h4.04v-5.87h-3.62V45.48z"/>
		<path class="st0" d="M62.08,48.22v0.98c-0.55,0.5-1.49,1.08-2.36,1.47h4.03v1.15h-4.13v1.52c0,0.49-0.04,1.03-0.98,1.03H56.7
			l-0.21-1.24h1.46c0.35,0,0.39-0.04,0.39-0.39v-0.92h-4.09v-1.15h4.09v-0.66l0.41,0.01c0.11-0.04,0.78-0.27,1.24-0.68h-4.06v-1.12
			H62.08z M55.7,46.46c-0.2-0.45-0.32-0.72-0.62-1.16l1.21-0.37c0.43,0.59,0.64,1.16,0.77,1.53h1.53c-0.29-0.7-0.48-0.98-0.65-1.24
			l1.22-0.37c0.3,0.49,0.52,0.92,0.73,1.61H61c0.12-0.22,0.29-0.54,0.64-1.57l1.34,0.34c-0.23,0.53-0.36,0.79-0.61,1.23h1.13v2.37
			h-1.22v-1.26h-6.55v1.26H54.5v-2.37H55.7z"/>
		<path class="st0" d="M66.68,46.41c-0.83,0.05-1.15,0.06-1.47,0.06l-0.19-1.12c0.84,0,2.55-0.11,3.69-0.47l0.47,1.16
			c-0.31,0.09-0.53,0.15-1.32,0.26v1.23h1.15v1.15h-1.15v0.08c0.45,0.74,0.91,1.19,1.29,1.54l-0.66,1.11
			c-0.36-0.48-0.49-0.69-0.63-0.98v3.91h-1.18v-3.86c-0.57,1.13-1.04,1.75-1.36,2.17l-0.47-1.52c0.7-0.6,1.27-1.49,1.71-2.45h-1.48
			v-1.15h1.6V46.41z M72.41,50.46v-5.54h1.27v5.28l0.8-0.17l0.12,1.24l-0.92,0.19v2.88h-1.27v-2.62l-3.27,0.67l-0.15-1.23
			L72.41,50.46z M69.97,47.8c0.81,0.47,1.26,0.83,1.8,1.41l-0.85,0.93c-0.49-0.59-1.17-1.11-1.72-1.45L69.97,47.8z M70.45,45.28
			c0.7,0.35,1.33,0.86,1.81,1.43l-0.84,0.95c-0.61-0.69-0.89-0.96-1.7-1.5L70.45,45.28z"/>
		<path class="st0" d="M81.93,49.63c0,0.72-0.59,1.33-1.33,1.33c-0.74,0-1.33-0.6-1.33-1.33c0-0.75,0.62-1.33,1.33-1.33
			C81.32,48.3,81.93,48.89,81.93,49.63z"/>
		<path class="st0" d="M95.41,46.12h-3.5v0.37h3.99v2.17h-1.25v-1.38h-2.74v1.82H90.8v-1.82h-2.71v1.38h-1.2v-2.17h3.91v-0.37h-3.42
			V45.2h8.04V46.12z M96.19,52.58c-0.09,1.14-0.28,1.67-1.07,1.67h-3.38c-0.55,0-1-0.09-1-0.72v-0.77h-3.4v-3.43h8.05v3.03
			L96.19,52.58z M90.42,47.64v0.5h-1.9v-0.5H90.42z M90.42,48.49v0.52h-1.9v-0.52H90.42z M90.75,51.37h-2.21v0.56h2.21V51.37z
			 M90.75,50.13h-2.17v0.54h2.17V50.13z M94.18,50.13h-2.25v0.54h2.25V50.13z M94.18,51.37h-2.25v0.56h2.25V51.37z M94.57,53.29
			c0.27,0,0.38-0.02,0.44-0.53h-3.09v0.28c0,0.2,0.04,0.25,0.23,0.25H94.57z M94.27,47.64v0.5h-1.95v-0.5H94.27z M94.27,48.49v0.52
			h-1.95v-0.52H94.27z"/>
		<path class="st0" d="M99.43,46.66c-0.26,0.32-0.57,0.68-1.28,1.35l-0.79-1.02c0.8-0.62,1.29-1.2,1.8-2.17l1.33,0.24
			c-0.15,0.25-0.19,0.32-0.31,0.52h6.67v1.08H99.43z M102.46,54.14c-0.27-0.27-0.8-0.82-1.63-1.49c-1.34,1.1-2.22,1.49-2.66,1.69
			l-0.75-1.12c1.04-0.4,1.79-0.78,2.46-1.29c-0.71-0.51-1.24-0.81-1.65-1.03l0.73-0.91c0.28,0.14,0.74,0.38,1.82,1.11
			c0.36-0.39,0.62-0.73,0.97-1.26l1.05,0.56c-0.2,0.33-0.49,0.81-1.08,1.41c0.89,0.69,1.35,1.09,1.63,1.35L102.46,54.14z
			 M97.57,48.66h7.87c-0.04,0.58-0.13,2.06-0.13,2.88c0,0.28,0,1.34,0.29,1.34c0.24,0,0.43-0.84,0.56-1.42l0.85,0.83
			c-0.16,0.81-0.43,1.28-0.53,1.44c-0.17,0.27-0.43,0.55-0.96,0.55c-1.2,0-1.4-1.43-1.4-2.96c0-0.74,0.02-1.31,0.04-1.6h-6.59V48.66
			z M106.12,47.16v1h-6.92v-1H106.12z"/>
		<path class="st0" d="M117.01,46.12h-3.5v0.37h3.99v2.17h-1.25v-1.38h-2.74v1.82h-1.12v-1.82h-2.71v1.38h-1.2v-2.17h3.91v-0.37
			h-3.42V45.2h8.04V46.12z M117.79,52.58c-0.09,1.14-0.28,1.67-1.07,1.67h-3.38c-0.55,0-1-0.09-1-0.72v-0.77h-3.4v-3.43h8.05v3.03
			L117.79,52.58z M112.02,47.64v0.5h-1.9v-0.5H112.02z M112.02,48.49v0.52h-1.9v-0.52H112.02z M112.35,51.37h-2.21v0.56h2.21V51.37z
			 M112.35,50.13h-2.17v0.54h2.17V50.13z M115.78,50.13h-2.25v0.54h2.25V50.13z M115.78,51.37h-2.25v0.56h2.25V51.37z M116.17,53.29
			c0.27,0,0.38-0.02,0.44-0.53h-3.09v0.28c0,0.2,0.04,0.25,0.23,0.25H116.17z M115.87,47.64v0.5h-1.95v-0.5H115.87z M115.87,48.49
			v0.52h-1.95v-0.52H115.87z"/>
		<path class="st0" d="M119.86,45.24h7.89v1.2c-1,0.76-2.01,1.38-3.29,1.94v0.56h4.04v1.23h-4.04v2.79c0,1.08-0.1,1.37-1.31,1.37
			h-1.92l-0.18-1.24h1.6c0.42,0,0.5-0.01,0.5-0.47v-2.45h-4.05v-1.23h4.05v-1.51h0.79c0.7-0.32,1.14-0.58,1.7-0.96h-5.78V45.24z"/>
		<path class="st0" d="M130.33,45.48h8.54v1.26h-3.6v5.87h4.02v1.25h-9.37v-1.25h4.04v-5.87h-3.62V45.48z"/>
		<path class="st0" d="M148.47,48.22v0.98c-0.55,0.5-1.49,1.08-2.36,1.47h4.03v1.15h-4.13v1.52c0,0.49-0.04,1.03-0.98,1.03h-1.94
			l-0.21-1.24h1.46c0.35,0,0.39-0.04,0.39-0.39v-0.92h-4.09v-1.15h4.09v-0.66l0.41,0.01c0.11-0.04,0.78-0.27,1.24-0.68h-4.06v-1.12
			H148.47z M142.1,46.46c-0.2-0.45-0.32-0.72-0.62-1.16l1.21-0.37c0.43,0.59,0.64,1.16,0.77,1.53h1.53
			c-0.29-0.7-0.48-0.98-0.65-1.24l1.22-0.37c0.3,0.49,0.52,0.92,0.73,1.61h1.11c0.12-0.22,0.29-0.54,0.64-1.57l1.34,0.34
			c-0.23,0.53-0.36,0.79-0.61,1.23h1.13v2.37h-1.22v-1.26h-6.55v1.26h-1.23v-2.37H142.1z"/>
		<path class="st0" d="M153.08,46.41c-0.83,0.05-1.15,0.06-1.47,0.06l-0.19-1.12c0.84,0,2.55-0.11,3.69-0.47l0.47,1.16
			c-0.31,0.09-0.53,0.15-1.32,0.26v1.23h1.15v1.15h-1.15v0.08c0.45,0.74,0.91,1.19,1.29,1.54l-0.66,1.11
			c-0.36-0.48-0.49-0.69-0.63-0.98v3.91h-1.18v-3.86c-0.57,1.13-1.04,1.75-1.36,2.17l-0.47-1.52c0.7-0.6,1.27-1.49,1.71-2.45h-1.48
			v-1.15h1.6V46.41z M158.81,50.46v-5.54h1.27v5.28l0.8-0.17l0.12,1.24l-0.92,0.19v2.88h-1.27v-2.62l-3.27,0.67l-0.15-1.23
			L158.81,50.46z M156.37,47.8c0.81,0.47,1.26,0.83,1.8,1.41l-0.85,0.93c-0.49-0.59-1.17-1.11-1.72-1.45L156.37,47.8z M156.85,45.28
			c0.7,0.35,1.33,0.86,1.81,1.43l-0.84,0.95c-0.61-0.69-0.89-0.96-1.7-1.5L156.85,45.28z"/>
	</g>
	<g>
		<path class="st0" d="M0,18.56V0.28h4.06v18.27H0z M3.11,3.78V0.28h9.89v3.49H3.11z M3.11,10.92V7.53h9.11v3.39H3.11z M3.11,18.56
			v-3.52h10.02v3.52H3.11z"/>
		<path class="st0" d="M18.27,18.56V0.28h4.06v18.27H18.27z M21.38,3.78V0.28h9.89v3.49H21.38z M21.38,10.92V7.53h9.11v3.39H21.38z
			 M21.38,18.56v-3.52H31.4v3.52H21.38z"/>
		<path class="st0" d="M36.57,18.56V0.28h4.06v18.27H36.57z"/>
		<path class="st0" d="M55,18.84c-1.36,0-2.63-0.24-3.79-0.71c-1.16-0.47-2.18-1.14-3.05-2.01c-0.87-0.86-1.55-1.87-2.03-3.02
			c-0.48-1.15-0.73-2.38-0.73-3.71c0-1.33,0.24-2.57,0.73-3.71c0.48-1.15,1.16-2.14,2.02-2.99c0.86-0.85,1.88-1.51,3.04-1.98
			C52.35,0.24,53.61,0,54.98,0c1.45,0,2.74,0.23,3.87,0.7c1.13,0.47,2.12,1.1,2.96,1.92l-2.72,2.74c-0.48-0.52-1.07-0.92-1.75-1.22
			c-0.68-0.29-1.47-0.44-2.37-0.44c-0.79,0-1.52,0.13-2.19,0.4c-0.66,0.27-1.23,0.65-1.71,1.15c-0.48,0.5-0.85,1.1-1.11,1.81
			c-0.27,0.71-0.4,1.49-0.4,2.33c0,0.86,0.13,1.65,0.4,2.36c0.27,0.71,0.64,1.31,1.11,1.81c0.47,0.5,1.04,0.89,1.71,1.16
			c0.66,0.28,1.39,0.41,2.19,0.41c0.93,0,1.74-0.15,2.43-0.44c0.69-0.29,1.29-0.7,1.79-1.22l2.74,2.74
			c-0.88,0.81-1.89,1.45-3.02,1.92C57.79,18.61,56.49,18.84,55,18.84z"/>
	</g>
</g>
</svg>
