<svg xmlns="http://www.w3.org/2000/svg" viewBox="0 0 331.9 151.45"><defs><style>.cls-1{fill:#8b1c21;}.cls-2{fill:#6f665d;}.cls-3{fill:#040000;}</style></defs><title>アセット 2</title><g id="レイヤー_2" data-name="レイヤー 2"><g id="レイヤー_1-2" data-name="レイヤー 1"><polygon class="cls-1" points="49.47 0 49.47 83.55 27.54 83.55 27.54 104.84 49.47 104.84 70.76 104.84 70.76 83.55 70.76 0 49.47 0"/><polygon class="cls-1" points="43.22 64.29 43.22 43.01 21.29 43.01 0 43.01 0 64.29 0 104.84 21.29 104.84 21.29 64.29 43.22 64.29"/><rect class="cls-2" x="91.85" y="91.29" width="21.29" height="13.55"/><rect class="cls-2" x="131.79" width="21.29" height="104.84"/><polygon class="cls-2" points="221.2 83.55 199.26 83.55 199.26 104.84 221.2 104.84 221.2 114.79 242.49 114.79 242.49 104.84 242.49 83.55 242.49 43.01 221.2 43.01 221.2 83.55"/><polygon class="cls-2" points="214.95 64.29 214.95 43.01 193.01 43.01 171.73 43.01 171.73 64.29 171.73 104.84 193.01 104.84 193.01 64.29 214.95 64.29"/><polygon class="cls-2" points="282.43 0 261.14 0 261.14 83.55 261.14 104.84 282.43 104.84 304.36 104.84 304.36 83.55 282.43 83.55 282.43 0"/><polygon class="cls-2" points="310.61 43.01 288.68 43.01 288.68 64.29 310.61 64.29 310.61 104.84 331.9 104.84 331.9 64.29 331.9 43.01 310.61 43.01"/><path class="cls-3" d="M19.4,139.39h5.34c.24,2.16,1.65,3.06,4.2,3.06,1.74,0,3.45-.63,3.45-2.25s-1.74-2.07-4.68-2.79c-3.72-.87-7.65-2-7.65-6.51s3.72-6.6,8.52-6.6,8.25,2.1,8.46,6.6H31.85c-.21-1.65-1.47-2.58-3.45-2.58s-3.09.81-3.09,2c0,1.5,1.65,1.86,4.86,2.58,4,.93,7.59,2.16,7.59,6.75s-3.84,7-8.79,7C23.27,146.65,19.52,144.13,19.4,139.39Z"/><path class="cls-3" d="M41.33,147.4H43c1.44,0,2-.57,2-1.62a10.31,10.31,0,0,0-.93-3.18l-4.53-11.82h5.16l2.07,6.54c.48,1.5,1,3.54,1,3.54h.06s.42-2,.9-3.54l2-6.54h4.89L50.3,146.35c-1.23,3.6-2.7,4.86-5.79,4.86H41.33Z"/><path class="cls-3" d="M57,141.16h4.62a2.48,2.48,0,0,0,2.82,2.28c1.47,0,2.4-.54,2.4-1.53,0-1.38-1.86-1.53-3.9-1.89-2.67-.45-5.52-1.17-5.52-4.77,0-3.24,3-4.92,6.63-4.92,4.35,0,6.69,1.89,6.93,4.92h-4.5c-.18-1.38-1.11-1.8-2.46-1.8-1.2,0-2.13.45-2.13,1.41s1.74,1.23,3.69,1.59c2.7.45,5.88,1.14,5.88,5.07,0,3.36-3,5.1-7,5.1C59.93,146.62,57.11,144.55,57,141.16Z"/><path class="cls-3" d="M75.41,142.09v-8.25h-2v-3.06h2v-4.86h4.77v4.86H83v3.06H80.18V141c0,1.2.66,1.5,1.71,1.5.42,0,.9,0,1.08,0v3.57a11.28,11.28,0,0,1-2.67.24C77.45,146.32,75.41,145.39,75.41,142.09Z"/><path class="cls-3" d="M85.25,138.43a7.73,7.73,0,0,1,7.89-8.1,7.55,7.55,0,0,1,5.25,1.92c1.83,1.68,2.73,4.35,2.7,7.47h-11c.3,2.07,1.44,3.36,3.45,3.36a2.55,2.55,0,0,0,2.55-1.53h4.77a6.25,6.25,0,0,1-2.58,3.63,8.12,8.12,0,0,1-4.8,1.41A7.77,7.77,0,0,1,85.25,138.43Zm10.89-1.62a3,3,0,0,0-2.91-3c-1.86,0-2.82,1.17-3.15,3Z"/><path class="cls-3" d="M103.94,130.78h4.68V133h.09a5.12,5.12,0,0,1,4.65-2.64,4.6,4.6,0,0,1,4.32,2.7h.06a5.46,5.46,0,0,1,4.83-2.7c3.48,0,5.22,2.37,5.22,5.82v10H122.9V137c0-1.65-.69-2.61-2.16-2.61s-2.43,1.29-2.43,3.12v8.61h-4.89V137c0-1.65-.69-2.61-2.16-2.61s-2.43,1.29-2.43,3.12v8.61h-4.89Z"/><path class="cls-3" d="M130.28,141.16h4.62a2.48,2.48,0,0,0,2.82,2.28c1.47,0,2.4-.54,2.4-1.53,0-1.38-1.86-1.53-3.9-1.89-2.67-.45-5.52-1.17-5.52-4.77,0-3.24,3-4.92,6.63-4.92,4.35,0,6.69,1.89,6.93,4.92h-4.5c-.18-1.38-1.11-1.8-2.46-1.8s-2.13.45-2.13,1.41,1.74,1.23,3.69,1.59c2.7.45,5.88,1.14,5.88,5.07,0,3.36-3,5.1-7,5.1C133.25,146.62,130.43,144.55,130.28,141.16Z"/><path class="cls-3" d="M153.68,124.69h9.15c5.94,0,9.93,4.29,9.93,10.86,0,3.78-1.32,6.81-3.72,8.64a10.59,10.59,0,0,1-6.54,1.95h-8.82Zm8.43,17c3.48,0,5.28-2.19,5.28-6.12s-1.89-6.42-5.22-6.42H159v12.54Z"/><path class="cls-3" d="M175,138.43a7.73,7.73,0,0,1,7.89-8.1,7.55,7.55,0,0,1,5.25,1.92c1.83,1.68,2.73,4.35,2.7,7.47h-11c.3,2.07,1.44,3.36,3.45,3.36a2.55,2.55,0,0,0,2.55-1.53h4.77a6.25,6.25,0,0,1-2.58,3.63,8.12,8.12,0,0,1-4.8,1.41A7.77,7.77,0,0,1,175,138.43Zm10.89-1.62a3,3,0,0,0-2.91-3c-1.86,0-2.82,1.17-3.15,3Z"/><path class="cls-3" d="M192.8,141.16h4.62a2.48,2.48,0,0,0,2.82,2.28c1.47,0,2.4-.54,2.4-1.53,0-1.38-1.86-1.53-3.9-1.89-2.67-.45-5.52-1.17-5.52-4.77,0-3.24,3-4.92,6.63-4.92,4.35,0,6.69,1.89,6.93,4.92h-4.5c-.18-1.38-1.11-1.8-2.46-1.8-1.2,0-2.13.45-2.13,1.41s1.74,1.23,3.69,1.59c2.7.45,5.88,1.14,5.88,5.07,0,3.36-3,5.1-7,5.1C195.77,146.62,193,144.55,192.8,141.16Z"/><path class="cls-3" d="M210.05,124.69h4.89v4h-4.89Zm0,6.09h4.89v15.36h-4.89Z"/><path class="cls-3" d="M218.12,146.5h4.74c.27.81,1.08,1.5,2.7,1.5,2.07,0,2.94-1.08,2.94-2.94v-1.53h-.12a4.9,4.9,0,0,1-3.93,1.77c-3.45,0-6.66-2.58-6.66-7.29,0-4.5,2.64-7.68,6.45-7.68a4.93,4.93,0,0,1,4.32,2.1h.06v-1.65h4.68v13.86a6.59,6.59,0,0,1-2,5.1,8.39,8.39,0,0,1-5.64,1.71C221.39,151.45,218.6,149.71,218.12,146.5Zm10.59-8.67c0-2.07-1.08-3.81-3.12-3.81-1.83,0-3,1.5-3,3.84s1.2,3.81,3,3.81C227.72,141.67,228.71,140,228.71,137.83Z"/><path class="cls-3" d="M236.84,130.78h4.71v2.1h.09a5.38,5.38,0,0,1,4.74-2.55c3.36,0,5.34,2.4,5.34,5.82v10h-4.89v-9c0-1.62-.81-2.73-2.4-2.73s-2.7,1.35-2.7,3.24v8.49h-4.89Z"/><path class="cls-3" d="M261.29,124.69h5.31v16.95h9.63v4.5H261.29Z"/><path class="cls-3" d="M278.42,141.85c0-3.39,2.7-4.41,5.88-4.83,2.88-.36,3.9-.66,3.9-1.71s-.63-1.65-2.1-1.65-2.34.69-2.49,2h-4.5c.12-2.85,2.31-5.28,7-5.28a8,8,0,0,1,5,1.26A5.09,5.09,0,0,1,293,136v7.74c0,1.23.12,1.92.54,2.19v.21H288.8a4.28,4.28,0,0,1-.51-1.71h-.06a5,5,0,0,1-4.56,2.1C280.61,146.53,278.42,144.88,278.42,141.85Zm9.9-1.2v-1.83a11.87,11.87,0,0,1-2.52.81c-1.89.42-2.67.9-2.67,2.07s.9,1.71,2.1,1.71A2.79,2.79,0,0,0,288.32,140.65Z"/><path class="cls-3" d="M301.31,144.19h-.06v1.95h-4.68V124.69h4.89v7.83h.09a5,5,0,0,1,4.38-2.19c4,0,6.57,3.51,6.57,8.13,0,5.1-2.58,8.16-6.54,8.16A5.16,5.16,0,0,1,301.31,144.19Zm6.24-5.76c0-2.64-1.05-4.38-3-4.38-2.16,0-3.21,1.89-3.21,4.41s1.26,4.29,3.27,4.29S307.55,141.1,307.55,138.43Z"/></g></g></svg>